<?xml version="1.0" encoding="utf-8"?>
<!-- Generator: Adobe Illustrator 16.0.3, SVG Export Plug-In . SVG Version: 6.00 Build 0)  -->
<!DOCTYPE svg PUBLIC "-//W3C//DTD SVG 1.1//EN" "http://www.w3.org/Graphics/SVG/1.1/DTD/svg11.dtd">
<svg version="1.1" id="Capa_1" xmlns="http://www.w3.org/2000/svg" xmlns:xlink="http://www.w3.org/1999/xlink" x="0px" y="0px"
	 width="30px" height="25px" viewBox="0 0 30 25" enable-background="new 0 0 30 25" xml:space="preserve">
<g id="Grupo_7" transform="translate(-323 -12)">
	<path id="menu-bg" fill="#C23F81" d="M327,12h22c2.209,0,4,1.791,4,4v17c0,2.209-1.791,4-4,4h-22c-2.209,0-4-1.791-4-4V16
		C323,13.791,324.791,12,327,12z"/>
	<g id="Grupo_5" transform="translate(2 1)">
		<path id="Rectángulo_15" fill="#FFFFFF" d="M328,17h17c0.553,0,1,0.448,1,1l0,0c0,0.552-0.447,1-1,1h-17c-0.552,0-1-0.448-1-1
			l0,0C327,17.448,327.448,17,328,17z"/>
		<path id="Rectángulo_16" fill="#FFFFFF" d="M328,23h11c0.553,0,1,0.448,1,1l0,0c0,0.553-0.447,1-1,1h-11c-0.552,0-1-0.447-1-1
			l0,0C327,23.448,327.448,23,328,23z"/>
		<path id="Rectángulo_17" fill="#FFFFFF" d="M328,29h17c0.553,0,1,0.447,1,1l0,0c0,0.553-0.447,1-1,1h-17c-0.552,0-1-0.447-1-1
			l0,0C327,29.447,327.448,29,328,29z"/>
	</g>
</g>
</svg>
