<?xml version="1.0" encoding="utf-8"?>
<!-- Generator: Adobe Illustrator 16.0.3, SVG Export Plug-In . SVG Version: 6.00 Build 0)  -->
<!DOCTYPE svg PUBLIC "-//W3C//DTD SVG 1.1//EN" "http://www.w3.org/Graphics/SVG/1.1/DTD/svg11.dtd">
<svg version="1.1" id="Capa_1" xmlns="http://www.w3.org/2000/svg" xmlns:xlink="http://www.w3.org/1999/xlink" x="0px" y="0px"
	 width="29.348px" height="29.934px" viewBox="0 0 29.348 29.934" enable-background="new 0 0 29.348 29.934" xml:space="preserve">
<g id="surface1" transform="translate(-0.109 0)">
	<path id="Trazado_1" fill="#FFFFFF" d="M20.555,17.763c3.591-5.073,2.39-12.098-2.685-15.688C12.797-1.517,5.773-0.315,2.182,4.758
		c-3.592,5.074-2.39,12.098,2.684,15.689c3.621,2.563,8.408,2.76,12.228,0.504l8.3,8.25c0.908,0.931,2.4,0.95,3.332,0.041
		c0.914-0.892,0.951-2.349,0.084-3.286c-0.028-0.03-0.056-0.059-0.086-0.086L20.555,17.763z M11.361,18.532
		c-4.006-0.002-7.253-3.251-7.251-7.257c0.001-4.006,3.25-7.253,7.256-7.252c4.007,0.002,7.253,3.251,7.252,7.257
		c-0.001,4.004-3.247,7.25-7.252,7.252H11.361z"/>
</g>
</svg>
